<svg xmlns="http://www.w3.org/2000/svg" width="81" height="102.238" viewBox="0 0 81 102.238">
  <g id="surface1" transform="translate(-0.5)">
    <path id="Path_52347" data-name="Path 52347" d="M55.595.79A2.474,2.474,0,0,0,53.817,0H13.934A13.491,13.491,0,0,0,.5,13.409V88.828a13.491,13.491,0,0,0,13.434,13.41H68.066A13.491,13.491,0,0,0,81.5,88.828V28.942a2.657,2.657,0,0,0-.716-1.729Zm.716,7.927L73.178,26.424H62.213a5.881,5.881,0,0,1-5.9-5.877ZM68.066,97.3H13.934a8.554,8.554,0,0,1-8.5-8.471V13.409a8.554,8.554,0,0,1,8.5-8.47H51.372V20.546A10.8,10.8,0,0,0,62.213,31.363H76.561V88.828A8.537,8.537,0,0,1,68.066,97.3Zm0,0" fill="#331d56"/>
    <path id="Path_52348" data-name="Path 52348" d="M132.29,401.934H91.641a2.47,2.47,0,1,0,0,4.939h40.673a2.47,2.47,0,1,0-.025-4.939Zm0,0" transform="translate(-70.966 -321.674)" fill="#331d56"/>
    <path id="Path_52349" data-name="Path 52349" d="M122.7,189.979l10.175-10.941v26.967a2.47,2.47,0,1,0,4.939,0V179.039l10.175,10.941a2.464,2.464,0,0,0,3.606-3.359l-14.472-15.533a2.451,2.451,0,0,0-3.605,0L119.044,186.62a2.461,2.461,0,0,0,.123,3.482A2.52,2.52,0,0,0,122.7,189.979Zm0,0" transform="translate(-94.343 -136.291)" fill="#331d56"/>
  </g>
</svg>
